<svg width="3000" height="686" viewBox="0 0 3000 686" fill="none" xmlns="http://www.w3.org/2000/svg">
<path d="M692 3C692 2 691 0 689 0H610C609 0 609 1 608 1C608 2 607 3 607 3C609 39 609 75 607 109C590 347 470 520 248 623C200 646 147 665 91 680C89 681 88 682 89 683C89 685 90 686 91 686C93 685 194 672 288 635C395 592 483 533 549 459C626 372 673 264 688 137C693 95 694 50 692 3Z" fill="#D6DF28"/>
<path d="M477 91C476 89 475 87 471 86C460 86 448 85 437 85C320 85 211 115 128 168C88 194 56 225 34 259C12 293 0 331 0 369C0 414 16 458 48 498C78 536 122 570 175 596C175 596 176 596 178 596C178 596 179 596 180 596C272 561 351 506 406 438C464 367 494 285 494 200C494 163 488 127 477 91Z" fill="#39B54A"/>
<path d="M849 275C834 246 811 218 781 194C780 193 780 193 779 193C778 193 777 194 777 196C759 417 580 601 343 642C342 642 341 643 341 644C341 644 341 645 343 646C374 650 405 652 437 652C554 652 663 623 746 569C786 543 818 513 840 479C863 444 874 407 874 369C874 337 866 305 849 275Z" fill="#0778BE"/>
<path d="M1110 596L1058 525L1039 545V596H1002V429H1039V502L1106 429H1151L1083 500L1154 596H1110Z" fill="#0778BE"/>
<path d="M1284 545H1195C1199 561 1210 570 1226 570C1238 570 1247 566 1257 557L1278 575C1266 590 1249 599 1226 599C1187 599 1159 572 1159 533C1159 496 1185 466 1222 466C1265 466 1284 499 1284 536C1284 539 1284 542 1284 545ZM1222 495C1207 495 1197 506 1194 522H1249C1247 506 1238 495 1222 495Z" fill="#0778BE"/>
<path d="M1355 599C1333 599 1317 590 1317 560V499H1302V468H1317V436H1354V468H1384V499H1354V554C1354 562 1357 567 1366 567C1372 567 1378 565 1383 562V591C1376 596 1367 599 1355 599Z" fill="#0778BE"/>
<path d="M1526 545H1437C1440 561 1452 570 1468 570C1480 570 1489 566 1499 557L1520 575C1508 590 1491 599 1468 599C1429 599 1401 572 1401 533C1401 496 1427 466 1464 466C1507 466 1526 499 1526 536C1526 539 1526 542 1526 545ZM1464 495C1449 495 1439 506 1436 522H1491C1489 506 1479 495 1464 495Z" fill="#0778BE"/>
<path d="M1634 596V525C1634 508 1626 499 1612 499C1599 499 1590 508 1590 525V596H1553V468H1590V486C1598 476 1609 466 1627 466C1655 466 1671 484 1671 514V596H1634Z" fill="#0778BE"/>
<path d="M1777 596V583C1768 592 1756 599 1738 599C1714 599 1695 585 1695 559C1695 531 1716 518 1746 518C1759 518 1768 521 1777 523V521C1777 506 1768 498 1750 498C1736 498 1726 501 1715 505L1705 477C1720 471 1734 467 1755 467C1795 467 1812 487 1812 522V596H1777ZM1778 545C1772 542 1764 540 1755 540C1739 540 1730 546 1730 558C1730 568 1738 574 1750 574C1766 574 1778 564 1778 551V545Z" fill="#0778BE"/>
<path d="M1901 635C1880 635 1861 630 1844 622L1857 594C1870 602 1883 606 1900 606C1925 606 1936 594 1936 571V565C1926 578 1914 586 1895 586C1865 586 1838 564 1838 526C1838 487 1865 466 1895 466C1915 466 1926 474 1936 485V468H1972V567C1972 616 1949 635 1901 635ZM1936 526C1936 508 1923 496 1905 496C1887 496 1874 508 1874 526C1874 544 1887 556 1905 556C1923 556 1936 544 1936 526Z" fill="#0778BE"/>
<path d="M2080 596V583C2071 592 2059 599 2041 599C2017 599 1997 585 1997 559C1997 531 2019 518 2049 518C2062 518 2071 521 2080 523V521C2080 506 2071 498 2053 498C2039 498 2029 501 2017 505L2008 477C2022 471 2036 467 2058 467C2097 467 2115 487 2115 522V596H2080ZM2081 545C2074 542 2066 540 2057 540C2042 540 2032 546 2032 558C2032 568 2040 574 2052 574C2069 574 2081 564 2081 551V545Z" fill="#0778BE"/>
<path d="M2229 596L2195 544L2182 557V596H2146V422H2182V515L2225 468H2268L2220 519L2270 596H2229Z" fill="#0778BE"/>
<path d="M2400 545H2311C2315 561 2326 570 2343 570C2355 570 2364 566 2374 557L2395 575C2383 590 2365 599 2342 599C2304 599 2275 572 2275 533C2275 496 2301 466 2339 466C2381 466 2401 499 2401 536C2401 539 2401 542 2400 545ZM2339 495C2324 495 2314 506 2311 522H2366C2363 506 2354 495 2339 495Z" fill="#0778BE"/>
<path d="M2503 504C2479 504 2464 518 2464 549V596H2428V468H2464V494C2472 476 2484 465 2505 466V504H2503Z" fill="#0778BE"/>
<path d="M2525 635C2518 635 2514 635 2509 634V605C2512 606 2514 606 2517 606C2524 606 2529 602 2529 591V468H2566V594C2566 622 2552 635 2525 635ZM2528 422H2567V454H2528V422Z" fill="#0778BE"/>
<path d="M2675 596V583C2666 592 2654 599 2636 599C2612 599 2592 585 2592 559C2592 531 2614 518 2644 518C2657 518 2666 521 2675 523V521C2675 506 2666 498 2648 498C2634 498 2624 501 2612 505L2603 477C2617 471 2631 467 2653 467C2693 467 2710 487 2710 522V596H2675ZM2676 545C2669 542 2661 540 2652 540C2637 540 2627 546 2627 558C2627 568 2636 574 2647 574C2664 574 2676 564 2676 551V545Z" fill="#0778BE"/>
<path d="M2816 596V583C2808 592 2795 599 2778 599C2753 599 2734 585 2734 559C2734 531 2755 518 2785 518C2798 518 2808 521 2817 523V521C2817 506 2807 498 2789 498C2775 498 2765 501 2754 505L2745 477C2759 471 2773 467 2794 467C2834 467 2851 487 2851 522V596H2816ZM2817 545C2811 542 2803 540 2794 540C2778 540 2769 546 2769 558C2769 568 2777 574 2789 574C2806 574 2817 564 2817 551V545Z" fill="#0778BE"/>
<path d="M2964 596V525C2964 508 2956 499 2942 499C2928 499 2919 508 2919 525V596H2883V468H2919V486C2927 476 2938 466 2956 466C2984 466 3000 484 3000 514V596H2964Z" fill="#0778BE"/>
<path d="M1104 139C1146 139 1176 167 1176 202C1176 224 1161 243 1146 248C1169 254 1188 280 1188 304C1188 343 1162 375 1104 375H1002V139H1104ZM1092 231C1108 231 1119 222 1119 209C1119 197 1108 187 1092 187H1058V231H1092ZM1098 328C1117 328 1129 317 1129 301C1129 285 1116 275 1098 275H1058V328H1098Z" fill="#39B54A"/>
<path d="M1318 139C1376 139 1411 170 1411 220C1411 271 1376 301 1318 301H1284V375H1228V139H1318ZM1317 248C1338 248 1352 238 1352 220C1352 203 1338 192 1317 192H1284V248H1317Z" fill="#39B54A"/>
<path d="M1589 139V271C1589 341 1545 380 1483 380C1438 380 1400 355 1385 320L1441 305C1449 319 1464 327 1483 327C1514 327 1532 306 1532 273V139H1589Z" fill="#39B54A"/>
<path d="M1761 214C1756 193 1737 184 1721 184C1704 184 1694 192 1694 201C1694 217 1718 223 1746 233C1781 246 1818 266 1818 306C1818 350 1781 380 1726 380C1677 380 1642 353 1626 309L1680 294C1687 312 1703 330 1728 330C1749 330 1758 320 1758 309C1758 290 1730 286 1697 273C1668 262 1636 246 1636 205C1636 168 1673 135 1724 135C1769 135 1805 162 1816 199L1761 214Z" fill="#39B54A"/>
</svg>
