<svg width="874" height="686" viewBox="0 0 874 686" fill="none" xmlns="http://www.w3.org/2000/svg">
<path d="M692 3C692 2 691 0 689 0H610C609 0 609 1 608 1C608 2 607 3 607 3C609 39 609 75 607 109C590 347 470 520 248 623C200 646 147 665 91 680C89 681 88 682 89 683C89 685 90 686 91 686C93 685 194 672 288 635C395 592 483 533 549 459C626 372 673 264 688 137C693 95 694 50 692 3Z" fill="#D6DF28"/>
<path d="M477 91C476 89 475 87 471 86C460 86 448 85 437 85C320 85 211 115 128 168C88 194 56 225 34 259C12 293 0 331 0 369C0 414 16 458 48 498C78 536 122 570 175 596C175 596 176 596 178 596C178 596 179 596 180 596C272 561 351 506 406 438C464 367 494 285 494 200C494 163 488 127 477 91Z" fill="#39B54A"/>
<path d="M849 275C834 246 811 218 781 194C780 193 780 193 779 193C778 193 777 194 777 196C759 417 580 601 343 642C342 642 341 643 341 644C341 644 341 645 343 646C374 650 405 652 437 652C554 652 663 623 746 569C786 543 818 513 840 479C863 444 874 407 874 369C874 337 866 305 849 275Z" fill="#0778BE"/>
</svg>
