<?xml version="1.0" encoding="UTF-8"?>
<svg id="Layer_1" data-name="Layer 1" xmlns="http://www.w3.org/2000/svg" viewBox="0 0 872.41 1000">
  <defs>
    <style>
      .cls-1 {
        fill: #515151;
      }
    </style>
  </defs>
  <path class="cls-1" d="M447.79,752.28c0-78.75,.18-156.69-.25-234.63-.05-8.64,5.4-10.88,10.65-13.92,52.72-30.55,105.48-61.02,158.33-91.35,13.66-7.84,26.42-17.34,41.56-23.08,2.9,3.63,1.34,7.84,1.35,11.67,.12,72.91,.07,145.83,.2,218.74,.01,7.06-.11,12.77-7.74,17.13-66.78,38.1-133.3,76.68-199.91,115.06-.68,.39-1.71,.18-4.18,.38Z"/>
  <path class="cls-1" d="M213.54,387.02c51.77,29.89,101.25,58.45,150.73,87.01,17.83,10.29,35.61,20.69,53.54,30.8,4.68,2.64,8.03,5.25,8.02,11.42-.14,78.42-.1,156.84-.1,236.31-10.6-1.93-18.02-8.42-26.08-13.02-58.91-33.62-117.55-67.72-176.35-101.53-5.86-3.37-9.99-6.56-9.96-14.55,.31-77.98,.18-155.97,.18-236.44Z"/>
  <path class="cls-1" d="M646.51,369.56c-53.79,31.03-106.11,61.2-158.4,91.4-14.25,8.23-28.44,16.56-42.61,24.91-5.46,3.22-10.25,4.14-16.5,.5-63.95-37.24-128.12-74.1-192.13-111.24-3.24-1.88-9.34-2.75-8.23-7.69,.81-3.64,6.49-4.04,9.86-6.07,31.35-18.88,63.35-36.65,94.74-55.49,31.64-18.99,63.99-36.91,95.88-55.56,5.23-3.06,10.09-1.44,15.31,1.58,52.31,30.28,104.83,60.18,157.16,90.44,14.59,8.43,29.98,15.59,44.93,27.22Z"/>
  <path class="cls-1" d="M458.82,234.26c44.62-25.71,87.88-50.61,131.12-75.55,17.47-10.08,34.98-20.09,52.31-30.4,5.63-3.35,10.38-4.01,16.48-.46,65.74,38.28,131.64,76.29,197.48,114.4,1.17,.67,2.12,1.71,4.35,3.56-30.13,17.38-59.88,34.14-89.21,51.58-32.2,19.15-65.62,36.22-96.75,57.18-7.6,5.12-14.57,.46-19.86-3.84-27.86-22.66-61.58-35.25-91.46-54.17-33.86-21.43-69.13-40.47-104.45-62.31Z"/>
  <path class="cls-1" d="M425.72,1000c-24.11-13.88-46.05-26.48-67.97-39.13-44.41-25.63-88.71-51.46-133.32-76.76-7.59-4.31-11.15-8.65-11.08-17.97,.49-65.08,.49-130.16,.13-195.24-.06-10.93,1.99-12.58,11.64-6.95,64.07,37.37,128.33,74.4,192.63,111.37,5.21,2.99,8.15,5.98,8.13,12.63-.25,69.65-.15,139.3-.15,212.04Z"/>
  <path class="cls-1" d="M11.91,245.03c29.07-16.83,56.73-32.86,84.42-48.87,38.05-22,76.19-43.84,114.09-66.08,7.27-4.27,13.56-6.37,21.56-1.71,57.76,33.65,115.66,67.04,173.49,100.56,2.33,1.35,4.42,3.13,7.15,5.09-7.91,8.73-18.41,12.46-27.68,17.85-58.53,34.07-117.23,67.84-175.93,101.61-3.2,1.84-5.48,3.62-10.62,.55-39.07-23.29-78.8-45.48-118.16-68.29-22.39-12.97-44.46-26.48-68.31-40.72Z"/>
  <path class="cls-1" d="M447.58,888.85c0-32.55,.19-65.1-.14-97.65-.08-7.7,2.08-12.5,9.13-16.49,33.31-18.87,66.24-38.39,99.39-57.55,31.03-17.93,62.24-35.56,93.19-53.61,7.98-4.66,10.88-4.12,10.84,6.07-.29,66.02-.3,132.04-.02,198.05,.03,7.54-2.94,11.82-9,15.32-64.94,37.49-129.85,75.02-194.68,112.69-8.83,5.13-8.67-.19-8.66-6.42,.05-33.47,.02-66.93,.02-100.4h-.07Z"/>
  <path class="cls-1" d="M191.03,619.6c-41.13-23.76-80.36-46.41-119.58-69.08-20.63-11.93-41.12-24.12-61.94-35.71-6.35-3.53-8.94-7.55-8.91-15.04,.31-74.33,.41-148.66,.05-222.99-.06-11.83,3.01-11.66,11.87-6.49,56.25,32.84,112.72,65.29,169.05,98,5.72,3.32,10.8,6.46,10.74,15.29-.44,76.16-.24,152.33-.26,228.5,0,1.72-.45,3.44-1.01,7.53Z"/>
  <path class="cls-1" d="M682.24,618.3c-.28-5.18-.65-8.75-.65-12.33,0-73.42,.13-146.85-.08-220.27-.02-7.55,1.57-12.63,8.64-16.65,57.76-32.9,115.31-66.16,172.99-99.22,2.21-1.26,4.23-3.79,7.64-2.57,2.62,3.53,1.47,7.73,1.47,11.66,.06,73.42,0,146.85,.15,220.27,.01,6.27-.46,10.92-6.96,14.64-58.93,33.64-117.62,67.69-176.4,101.59-1.53,.89-3.28,1.4-6.81,2.88Z"/>
  <path class="cls-1" d="M624.03,110.58c-.59,3.96-3.71,4.52-5.95,5.82-57.78,33.51-115.63,66.91-173.39,100.45-5.85,3.39-10.98,3.09-16.72-.24-57.01-33.03-114.05-66.01-171.21-98.77-8.72-5-9.23-8.63-.27-13.78,57.54-33.05,115.03-66.19,172.38-99.57,6.06-3.53,10.76-2.97,16.44,.33,56.97,33.1,114.02,66.05,171.07,99.01,3.17,1.83,6.26,3.62,7.66,6.74Z"/>
  <path class="cls-1" d="M871.71,536.83c0,71.42-.17,140.61,.22,209.79,.05,8.45-5.18,11-10.6,14.13-49.54,28.64-99.07,57.29-148.76,85.67-9.4,5.37-17.98,12.47-30.46,15.94,0-7.51,0-14.18,0-20.85,.04-61.88,.15-123.76,0-185.64-.02-6.91,1.19-11.56,8-15.45,58.05-33.1,115.83-66.67,173.72-100.06,1.89-1.09,3.99-1.81,7.87-3.53Z"/>
  <path class="cls-1" d="M1.56,647.24c-.01-33.01,.09-66.02-.08-99.02-.05-8.78,1.53-12.05,10.77-6.68,55.38,32.23,110.9,64.23,166.59,95.93,9.41,5.36,12.96,11.91,12.87,22.88-.5,62.8-.2,125.61-.27,188.42-.02,14.71-.83,15.3-13.18,8.19-54.72-31.48-109.23-63.33-164.07-94.6-9.53-5.44-13.16-11.87-12.88-22.98,.79-30.7,.27-61.42,.26-92.14Z"/>
</svg>