<svg width="40" height="40" viewBox="0 0 40 40" fill="none" xmlns="http://www.w3.org/2000/svg">
<path d="M20 0C16.53 0 13.28 0.89 10.43 2.44L14.21 6.87L16.89 9.93C17.97 9.56 19.13 9.36 20.33 9.36C26.21 9.36 30.98 14.13 30.98 20.01C30.98 24.16 28.61 27.75 25.15 29.5C24.94 29.62 21.04 31.82 14.36 31.82L3.84 31.79C7.48 36.77 13.36 40 19.99 40C31.04 40 39.99 31.05 39.99 20C39.99 8.95 31.05 0 20 0Z" fill="#ED1C24"/>
<path d="M4.20999 7.74008L12.25 13.0901C13.08 12.1101 14.09 11.2901 15.22 10.6701L8.24999 3.83008C6.71999 4.94008 5.35999 6.26008 4.20999 7.75008V7.74008Z" fill="#ED1C24"/>
<path d="M11.59 18.76L21.44 22.56V20.23L13.05 15.46C12.39 16.33 11.87 17.41 11.59 18.76Z" fill="#ED1C24"/>
<path d="M14.11 14.3301L21.44 19.2101V16.7801L17.2 12.6201C16.13 12.9801 15.05 13.5201 14.11 14.3301Z" fill="#ED1C24"/>
<path d="M21.44 26.2301V23.5501L11.37 20.3801C11.27 21.9301 11.44 23.7501 11.96 25.9101C11.96 25.9101 9.66 23.5201 9.65 19.8401L0.25 16.8701C0.09 17.8901 0 18.9301 0 20.0001C0 22.1701 0.35 24.2701 0.99 26.2301H21.44Z" fill="#ED1C24"/>
<path d="M0.779999 14.4801L9.72 18.0801C9.94 16.7601 10.42 15.5301 11.1 14.4401L2.92 9.59009C2 11.1001 1.27 12.7401 0.779999 14.4801Z" fill="#ED1C24"/>
<path d="M9.53 27.45H1.44C1.87 28.51 2.38 29.53 2.98 30.5H17.42L19.27 28.5499H10.58L9.54 27.45H9.53Z" fill="#ED1C24"/>
</svg>
