<svg width="39" height="25" viewBox="0 0 39 25" fill="none" xmlns="http://www.w3.org/2000/svg">
<path d="M33.7324 1.89662C32.3402 1.14453 30.7194 0.819356 29.1402 0.981942C27.0416 1.20557 24.0702 2.28283 22.7818 5.51501C22.7818 5.81983 21.161 7.81196 23.0934 15.0282C22.5116 16.756 11.6026 17.4676 10.3558 7.20212C10.2104 6.06381 9.21297 5.20998 8.04937 5.20998H4.55837C2.52197 5.20998 0.880371 6.8159 0.880371 8.80803C0.880371 9.19425 0.94277 9.58046 1.06757 9.96668C2.68817 14.6013 6.38697 21.2687 14.6364 23.6267C14.6364 23.6267 26.896 26.8386 35.9558 16.5731C35.9558 16.5527 42.3974 6.57192 33.7324 1.89662ZM32.548 10.0277C32.0078 11.9995 29.6182 13.7882 29.6182 13.7882V13.6052C28.1636 9.1332 28.3298 6.26709 30.5324 6.45003C32.735 6.63296 33.109 8.05594 32.548 10.0277Z" fill="#F09181"/>
</svg>
